<svg width="533.1025024414063px" height="121.40498046875px" xmlns="http://www.w3.org/2000/svg" viewBox="-16.551251220703136 14.297509765625001 533.1025024414063 121.40498046875" style="background: rgba(0, 0, 0, 0);" preserveAspectRatio="xMidYMid"><defs><linearGradient id="editing-shiny-gradient" x1="0.04322727117869957" x2="0.9567727288213004" y1="0.2966316784620999" y2="0.7033683215379001" gradientUnits="objectBoundingBox"><stop offset="0.0" stop-color="#2a9fde"></stop><stop offset="0.5" stop-color="#21e499"></stop><stop offset="1.0" stop-color="#7ff658"></stop></linearGradient><linearGradient id="editing-shiny-gradient2" x1="0" x2="0" y1="0" y2="1"><stop offset="0.2" stop-color="#fff" stop-opacity="0.8"></stop><stop offset="0.8" stop-color="#fff" stop-opacity="0"></stop></linearGradient><filter id="editing-shiny2" x="-100%" y="-100%" width="300%" height="300%"><feMorphology operator="erode" radius="2"></feMorphology></filter><filter id="editing-shiny" x="-100%" y="-100%" width="300%" height="300%"><feFlood flood-color="#fff" result="flood"></feFlood><feConvolveMatrix in="SourceGraphic" result="conv" order="8,8" divisor="1" kernelMatrix="0 0 0 0 0 0 0 0 0 0 0 1 1 0 0 0 0 0 0 1 1 0 0 0 0 0 1 0 0 1 0 0 0 0 1 0 0 1 0 0 0 1 0 0 0 0 1 0 0 1 1 0 0 1 1 0 0 0 0 1 1 0 0 0 "></feConvolveMatrix><feOffset dx="0" dy="4" in="conv" result="offset"></feOffset><feComposite operator="in" in="flood" in2="offset" result="comp"></feComposite><feGaussianBlur in="offset" stdDeviation="3" result="shadow"></feGaussianBlur><feColorMatrix in="shadow" type="matrix" values="0.7 0 0 0 0  0 0.7 0 0 0  0 0 0.7 0 0  0 0 0 0.3 0" result="dark-shadow"></feColorMatrix><feOffset dx="0" dy="4" in="dark-shadow" result="offset-shadow"></feOffset><feOffset dx="0" dy="2" in="conv" result="offset-2"></feOffset><feComposite operator="out" in="offset" in2="offset-2" result="edge-diff"></feComposite><feGaussianBlur in="edge-diff" stdDeviation="1" result="edge-blur"></feGaussianBlur><feColorMatrix in="edge-blur" result="edge-shadow" type="matrix" values="0 0 0 0 0  0 0 0 0 0  0 0 0 0 0  0 0 0 0.5 0"></feColorMatrix><feComposite operator="in" in="edge-shadow" in2="offset" result="edge-shadow-in"></feComposite><feOffset dx="0" dy="1" in="edge-shadow-in" result="edge-shadow-final"></feOffset><feMerge result="out"><feMergeNode in="offset-shadow"></feMergeNode><feMergeNode in="comp"></feMergeNode><feMergeNode in="edge-shadow-final"></feMergeNode><feMergeNode in="SourceGraphic"></feMergeNode></feMerge></filter></defs><g filter="url(#editing-shiny)"><g transform="translate(60.55999994277954, 104.44000053405762)"><path d="M2.69-39.68L2.69-39.68L2.69-39.68Q3.58-41.47 5.54-42.46L5.54-42.46L5.54-42.46Q7.49-43.46 10.18-43.46L10.18-43.46L10.18-43.46Q14.40-43.46 16.93-40.42L16.93-40.42L16.93-40.42Q19.46-37.38 19.46-30.72L19.46-30.72L19.46-7.87L34.11-42.18L41.66-42.18L43.39-9.79L43.20-7.94L58.43-42.18L67.20-42.18L46.72 0L33.09 0L31.81-19.46L23.36 0L7.94 0L6.02-30.72L6.02-30.72Q5.82-34.18 4.90-36.45L4.90-36.45L4.90-36.45Q3.97-38.72 2.69-39.68ZM89.28-10.82L89.28-10.82L89.28-10.82Q90.88-9.73 90.88-7.33L90.88-7.33L90.88-7.33Q90.88-4.93 89.66-3.39L89.66-3.39L89.66-3.39Q88.45-1.86 86.46-0.83L86.46-0.83L86.46-0.83Q82.37 1.28 77.95 1.28L77.95 1.28L77.95 1.28Q73.54 1.28 70.94 0.32L70.94 0.32L70.94 0.32Q68.35-0.64 66.62-2.43L66.62-2.43L66.62-2.43Q63.23-5.82 63.23-12.03L63.23-12.03L63.23-12.03Q63.23-21.70 68.48-27.58L68.48-27.58L68.48-27.58Q74.11-33.92 83.90-33.92L83.90-33.92L83.90-33.92Q89.98-33.92 92.99-31.36L92.99-31.36L92.99-31.36Q95.23-29.44 95.23-26.30L95.23-26.30L95.23-26.30Q95.23-15.04 75.78-15.04L75.78-15.04L75.78-15.04Q75.52-13.38 75.52-11.97L75.52-11.97L75.52-11.97Q75.52-9.02 76.83-7.90L76.83-7.90L76.83-7.90Q78.14-6.78 80.58-6.78L80.58-6.78L80.58-6.78Q83.01-6.78 85.60-7.90L85.60-7.90L85.60-7.90Q88.19-9.02 89.28-10.82ZM76.22-17.79L76.22-17.79L76.22-17.79Q80.77-17.79 83.39-20.61L83.39-20.61L83.39-20.61Q86.02-23.30 86.02-27.58L86.02-27.58L86.02-27.58Q86.02-29.06 85.47-29.86L85.47-29.86L85.47-29.86Q84.93-30.66 83.84-30.66L83.84-30.66L83.84-30.66Q82.75-30.66 81.82-30.24L81.82-30.24L81.82-30.24Q80.90-29.82 79.94-28.42L79.94-28.42L79.94-28.42Q77.57-25.22 76.22-17.79ZM96.58-3.07L96.58-3.07L104.51-44.80L117.50-46.08L115.52-36.29L115.52-36.29Q114.82-33.28 113.92-31.17L113.92-31.17L113.92-31.17Q115.33-32.96 118.40-33.66L118.40-33.66L118.40-33.66Q119.30-33.92 120.38-33.92L120.38-33.92L120.38-33.92Q126.34-33.92 129.60-30.30L129.60-30.30L129.60-30.30Q132.86-26.69 132.86-19.71L132.86-19.71L132.86-19.71Q132.86-10.62 127.68-4.93L127.68-4.93L127.68-4.93Q122.11 1.28 112 1.28L112 1.28L112 1.28Q105.02 1.28 99.78-1.02L99.78-1.02L99.78-1.02Q97.92-1.86 96.58-3.07ZM112.83-22.40L109.44-3.65L109.44-3.65Q110.78-2.50 112.45-2.50L112.45-2.50L112.45-2.50Q114.11-2.50 115.07-3.14L115.07-3.14L115.07-3.14Q116.03-3.78 116.74-5.06L116.74-5.06L116.74-5.06Q118.66-8.51 120.19-19.07L120.19-19.07L120.19-19.07Q120.64-22.08 120.64-25.09L120.64-25.09L120.64-25.09Q120.64-28.10 119.97-29.06L119.97-29.06L119.97-29.06Q119.30-30.02 118.02-30.02L118.02-30.02L118.02-30.02Q114.11-30.02 112.83-22.40L112.83-22.40ZM174.85-29.57L174.85-29.57L174.85-29.57Q175.81-31.49 175.81-33.28L175.81-33.28L175.81-33.28Q175.81-35.07 175.62-36.06L175.62-36.06L175.62-36.06Q175.42-37.06 174.98-37.82L174.98-37.82L174.98-37.82Q174.02-39.49 172.10-39.49L172.10-39.49L172.10-39.49Q169.73-39.49 167.81-37.76L167.81-37.76L167.81-37.76Q165.76-35.97 165.76-33.15L165.76-33.15L165.76-33.15Q165.76-31.36 167.01-29.98L167.01-29.98L167.01-29.98Q168.26-28.61 170.18-27.33L170.18-27.33L170.18-27.33Q172.10-26.05 174.27-24.77L174.27-24.77L174.27-24.77Q176.45-23.49 178.37-21.95L178.37-21.95L178.37-21.95Q182.78-18.43 182.78-13.70L182.78-13.70L182.78-13.70Q182.78-10.50 181.09-7.78L181.09-7.78L181.09-7.78Q179.39-5.06 176.58-3.07L176.58-3.07L176.58-3.07Q170.43 1.28 162.30 1.28L162.30 1.28L162.30 1.28Q155.71 1.28 152.32-0.86L152.32-0.86L152.32-0.86Q148.93-3.01 148.93-6.27L148.93-6.27L148.93-6.27Q148.93-12.10 153.47-13.57L153.47-13.57L153.47-13.57Q154.75-14.02 156.70-14.02L156.70-14.02L156.70-14.02Q158.66-14.02 160.90-13.18L160.90-13.18L160.90-13.18Q159.87-10.56 159.87-8.19L159.87-8.19L159.87-8.19Q159.87-3.07 163.52-3.07L163.52-3.07L163.52-3.07Q165.89-3.07 167.84-4.80L167.84-4.80L167.84-4.80Q169.79-6.53 169.79-8.48L169.79-8.48L169.79-8.48Q169.79-10.43 168.54-11.84L168.54-11.84L168.54-11.84Q167.30-13.25 165.44-14.37L165.44-14.37L165.44-14.37Q163.58-15.49 161.44-16.58L161.44-16.58L161.44-16.58Q159.30-17.66 157.44-19.20L157.44-19.20L157.44-19.20Q153.09-22.72 153.09-28.35L153.09-28.35L153.09-28.35Q153.09-32 154.88-34.85L154.88-34.85L154.88-34.85Q156.67-37.70 159.55-39.62L159.55-39.62L159.55-39.62Q165.31-43.52 172.38-43.52L172.38-43.52L172.38-43.52Q179.46-43.52 182.88-41.41L182.88-41.41L182.88-41.41Q186.30-39.30 186.30-35.71L186.30-35.71L186.30-35.71Q186.30-32.58 183.87-30.59L183.87-30.59L183.87-30.59Q181.76-28.93 179.20-28.93L179.20-28.93L179.20-28.93Q176.64-28.93 174.85-29.57ZM219.84-7.10L219.84-7.10L219.84-7.10Q219.84-4.29 222.72-3.46L222.72-3.46L222.72-3.46Q222.02-1.09 219.26 0.19L219.26 0.19L219.26 0.19Q216.96 1.28 214.43 1.28L214.43 1.28L214.43 1.28Q211.90 1.28 210.59 0.61L210.59 0.61L210.59 0.61Q209.28-0.06 208.58-1.15L208.58-1.15L208.58-1.15Q207.42-2.82 207.42-5.95L207.42-5.95L207.42-5.95Q207.42-7.81 208.45-12.93L208.45-12.93L209.34-17.79L209.34-17.79Q210.43-23.36 210.43-25.41L210.43-25.41L210.43-25.41Q210.43-28.99 208.45-28.99L208.45-28.99L208.45-28.99Q205.95-28.99 204.35-25.34L204.35-25.34L204.35-25.34Q203.71-23.94 203.26-21.82L203.26-21.82L198.91 0L186.05 1.28L195.07-44.80L207.94-46.08L207.42-43.52L207.42-43.52Q205.63-33.66 204.10-30.34L204.10-30.34L204.10-30.34Q207.68-33.92 214.27-33.92L214.27-33.92L214.27-33.92Q221.25-33.92 222.53-29.31L222.53-29.31L222.53-29.31Q222.98-27.84 222.98-26.56L222.98-26.56L222.98-26.56Q222.98-25.28 222.88-24.29L222.88-24.29L222.88-24.29Q222.78-23.30 222.46-21.50L222.46-21.50L221.63-16.90L220.16-9.66L220.16-9.66Q219.84-8.19 219.84-7.10ZM241.86 1.28L241.86 1.28L241.86 1.28Q227.78 1.28 227.78-11.97L227.78-11.97L227.78-11.97Q227.78-21.38 232.96-27.46L232.96-27.46L232.96-27.46Q238.46-33.92 248.00-33.92L248.00-33.92L248.00-33.92Q254.91-33.92 258.43-30.72L258.43-30.72L258.43-30.72Q261.95-27.52 261.95-20.80L261.95-20.80L261.95-20.80Q261.95-10.56 256.45-4.61L256.45-4.61L256.45-4.61Q251.07 1.28 241.86 1.28ZM243.52-26.56L243.52-26.56L243.52-26.56Q242.75-24.83 242.14-22.24L242.14-22.24L242.14-22.24Q241.54-19.65 240.77-15.55L240.77-15.55L240.77-15.55Q240.00-11.46 240.00-6.40L240.00-6.40L240.00-6.40Q240.00-4.74 240.54-3.65L240.54-3.65L240.54-3.65Q241.09-2.56 242.56-2.56L242.56-2.56L242.56-2.56Q244.03-2.56 244.96-3.26L244.96-3.26L244.96-3.26Q245.89-3.97 246.59-5.63L246.59-5.63L246.59-5.63Q247.87-8.58 248.90-14.05L248.90-14.05L248.90-14.05Q249.92-19.52 250.02-21.89L250.02-21.89L250.02-21.89Q250.11-24.26 250.11-26.02L250.11-26.02L250.11-26.02Q250.11-27.78 249.60-28.93L249.60-28.93L249.60-28.93Q249.09-30.08 247.65-30.08L247.65-30.08L247.65-30.08Q246.21-30.08 245.25-29.18L245.25-29.18L245.25-29.18Q244.29-28.29 243.52-26.56ZM295.55-4.38L295.55-4.38L295.55-4.38Q292.86-1.66 289.18-0.19L289.18-0.19L289.18-0.19Q285.50 1.28 281.86 1.28L281.86 1.28L281.86 1.28Q278.21 1.28 276.93 0.64L276.93 0.64L274.94 11.52L261.95 12.80L270.78-32.64L281.22-33.73L280.38-29.31L280.38-29.31Q283.07-33.86 288.64-33.86L288.64-33.86L288.64-33.86Q294.91-33.86 298.24-29.82L298.24-29.82L298.24-29.82Q301.18-26.18 301.18-20.61L301.18-20.61L301.18-20.61Q301.18-15.04 299.71-11.07L299.71-11.07L299.71-11.07Q298.24-7.10 295.55-4.38ZM281.09-22.34L277.70-3.58L277.70-3.58Q279.04-2.43 280.70-2.43L280.70-2.43L280.70-2.43Q282.37-2.43 283.33-3.07L283.33-3.07L283.33-3.07Q284.29-3.71 284.99-4.99L284.99-4.99L284.99-4.99Q286.91-8.45 288.45-18.94L288.45-18.94L288.45-18.94Q288.90-22.02 288.90-25.02L288.90-25.02L288.90-25.02Q288.90-28.03 288.22-28.99L288.22-28.99L288.22-28.99Q287.55-29.95 286.27-29.95L286.27-29.95L286.27-29.95Q282.37-29.95 281.09-22.34L281.09-22.34ZM334.85-4.38L334.85-4.38L334.85-4.38Q332.16-1.66 328.48-0.19L328.48-0.19L328.48-0.19Q324.80 1.28 321.15 1.28L321.15 1.28L321.15 1.28Q317.50 1.28 316.22 0.64L316.22 0.64L314.24 11.52L301.25 12.80L310.08-32.64L320.51-33.73L319.68-29.31L319.68-29.31Q322.37-33.86 327.94-33.86L327.94-33.86L327.94-33.86Q334.21-33.86 337.54-29.82L337.54-29.82L337.54-29.82Q340.48-26.18 340.48-20.61L340.48-20.61L340.48-20.61Q340.48-15.04 339.01-11.07L339.01-11.07L339.01-11.07Q337.54-7.10 334.85-4.38ZM320.38-22.34L316.99-3.58L316.99-3.58Q318.34-2.43 320-2.43L320-2.43L320-2.43Q321.66-2.43 322.62-3.07L322.62-3.07L322.62-3.07Q323.58-3.71 324.29-4.99L324.29-4.99L324.29-4.99Q326.21-8.45 327.74-18.94L327.74-18.94L327.74-18.94Q328.19-22.02 328.19-25.02L328.19-25.02L328.19-25.02Q328.19-28.03 327.52-28.99L327.52-28.99L327.52-28.99Q326.85-29.95 325.57-29.95L325.57-29.95L325.57-29.95Q321.66-29.95 320.38-22.34L320.38-22.34ZM370.24-10.82L370.24-10.82L370.24-10.82Q371.84-9.73 371.84-7.33L371.84-7.33L371.84-7.33Q371.84-4.93 370.62-3.39L370.62-3.39L370.62-3.39Q369.41-1.86 367.42-0.83L367.42-0.83L367.42-0.83Q363.33 1.28 358.91 1.28L358.91 1.28L358.91 1.28Q354.50 1.28 351.90 0.32L351.90 0.32L351.90 0.32Q349.31-0.64 347.58-2.43L347.58-2.43L347.58-2.43Q344.19-5.82 344.19-12.03L344.19-12.03L344.19-12.03Q344.19-21.70 349.44-27.58L349.44-27.58L349.44-27.58Q355.07-33.92 364.86-33.92L364.86-33.92L364.86-33.92Q370.94-33.92 373.95-31.36L373.95-31.36L373.95-31.36Q376.19-29.44 376.19-26.30L376.19-26.30L376.19-26.30Q376.19-15.04 356.74-15.04L356.74-15.04L356.74-15.04Q356.48-13.38 356.48-11.97L356.48-11.97L356.48-11.97Q356.48-9.02 357.79-7.90L357.79-7.90L357.79-7.90Q359.10-6.78 361.54-6.78L361.54-6.78L361.54-6.78Q363.97-6.78 366.56-7.90L366.56-7.90L366.56-7.90Q369.15-9.02 370.24-10.82ZM357.18-17.79L357.18-17.79L357.18-17.79Q361.73-17.79 364.35-20.61L364.35-20.61L364.35-20.61Q366.98-23.30 366.98-27.58L366.98-27.58L366.98-27.58Q366.98-29.06 366.43-29.86L366.43-29.86L366.43-29.86Q365.89-30.66 364.80-30.66L364.80-30.66L364.80-30.66Q363.71-30.66 362.78-30.24L362.78-30.24L362.78-30.24Q361.86-29.82 360.90-28.42L360.90-28.42L360.90-28.42Q358.53-25.22 357.18-17.79Z" fill="url(#editing-shiny-gradient)"></path></g></g><g filter="url(#editing-shiny2)"><g transform="translate(60.55999994277954, 104.44000053405762)"><path d="M2.69-39.68L2.69-39.68L2.69-39.68Q3.58-41.47 5.54-42.46L5.54-42.46L5.54-42.46Q7.49-43.46 10.18-43.46L10.18-43.46L10.18-43.46Q14.40-43.46 16.93-40.42L16.93-40.42L16.93-40.42Q19.46-37.38 19.46-30.72L19.46-30.72L19.46-7.87L34.11-42.18L41.66-42.18L43.39-9.79L43.20-7.94L58.43-42.18L67.20-42.18L46.72 0L33.09 0L31.81-19.46L23.36 0L7.94 0L6.02-30.72L6.02-30.72Q5.82-34.18 4.90-36.45L4.90-36.45L4.90-36.45Q3.97-38.72 2.69-39.68ZM89.28-10.82L89.28-10.82L89.28-10.82Q90.88-9.73 90.88-7.33L90.88-7.33L90.88-7.33Q90.88-4.93 89.66-3.39L89.66-3.39L89.66-3.39Q88.45-1.86 86.46-0.83L86.46-0.83L86.46-0.83Q82.37 1.28 77.95 1.28L77.95 1.28L77.95 1.28Q73.54 1.28 70.94 0.32L70.94 0.32L70.94 0.32Q68.35-0.64 66.62-2.43L66.62-2.43L66.62-2.43Q63.23-5.82 63.23-12.03L63.23-12.03L63.23-12.03Q63.23-21.70 68.48-27.58L68.48-27.58L68.48-27.58Q74.11-33.92 83.90-33.92L83.90-33.92L83.90-33.92Q89.98-33.92 92.99-31.36L92.99-31.36L92.99-31.36Q95.23-29.44 95.23-26.30L95.23-26.30L95.23-26.30Q95.23-15.04 75.78-15.04L75.78-15.04L75.78-15.04Q75.52-13.38 75.52-11.97L75.52-11.97L75.52-11.97Q75.52-9.02 76.83-7.90L76.83-7.90L76.83-7.90Q78.14-6.78 80.58-6.78L80.58-6.78L80.58-6.78Q83.01-6.78 85.60-7.90L85.60-7.90L85.60-7.90Q88.19-9.02 89.28-10.82ZM76.22-17.79L76.22-17.79L76.22-17.79Q80.77-17.79 83.39-20.61L83.39-20.61L83.39-20.61Q86.02-23.30 86.02-27.58L86.02-27.58L86.02-27.58Q86.02-29.06 85.47-29.86L85.47-29.86L85.47-29.86Q84.93-30.66 83.84-30.66L83.84-30.66L83.84-30.66Q82.75-30.66 81.82-30.24L81.82-30.24L81.82-30.24Q80.90-29.82 79.94-28.42L79.94-28.42L79.94-28.42Q77.57-25.22 76.22-17.79ZM96.58-3.07L96.58-3.07L104.51-44.80L117.50-46.08L115.52-36.29L115.52-36.29Q114.82-33.28 113.92-31.17L113.92-31.17L113.92-31.17Q115.33-32.96 118.40-33.66L118.40-33.66L118.40-33.66Q119.30-33.92 120.38-33.92L120.38-33.92L120.38-33.92Q126.34-33.92 129.60-30.30L129.60-30.30L129.60-30.30Q132.86-26.69 132.86-19.71L132.86-19.71L132.86-19.71Q132.86-10.62 127.68-4.93L127.68-4.93L127.68-4.93Q122.11 1.28 112 1.28L112 1.28L112 1.28Q105.02 1.28 99.78-1.02L99.78-1.02L99.78-1.02Q97.92-1.86 96.58-3.07ZM112.83-22.40L109.44-3.65L109.44-3.65Q110.78-2.50 112.45-2.50L112.45-2.50L112.45-2.50Q114.11-2.50 115.07-3.14L115.07-3.14L115.07-3.14Q116.03-3.78 116.74-5.06L116.74-5.06L116.74-5.06Q118.66-8.51 120.19-19.07L120.19-19.07L120.19-19.07Q120.64-22.08 120.64-25.09L120.64-25.09L120.64-25.09Q120.64-28.10 119.97-29.06L119.97-29.06L119.97-29.06Q119.30-30.02 118.02-30.02L118.02-30.02L118.02-30.02Q114.11-30.02 112.83-22.40L112.83-22.40ZM174.85-29.57L174.85-29.57L174.85-29.57Q175.81-31.49 175.81-33.28L175.81-33.28L175.81-33.28Q175.81-35.07 175.62-36.06L175.62-36.06L175.62-36.06Q175.42-37.06 174.98-37.82L174.98-37.82L174.98-37.82Q174.02-39.49 172.10-39.49L172.10-39.49L172.10-39.49Q169.73-39.49 167.81-37.76L167.81-37.76L167.81-37.76Q165.76-35.97 165.76-33.15L165.76-33.15L165.76-33.15Q165.76-31.36 167.01-29.98L167.01-29.98L167.01-29.98Q168.26-28.61 170.18-27.33L170.18-27.33L170.18-27.33Q172.10-26.05 174.27-24.77L174.27-24.77L174.27-24.77Q176.45-23.49 178.37-21.95L178.37-21.95L178.37-21.95Q182.78-18.43 182.78-13.70L182.78-13.70L182.78-13.70Q182.78-10.50 181.09-7.78L181.09-7.78L181.09-7.78Q179.39-5.06 176.58-3.07L176.58-3.07L176.58-3.07Q170.43 1.28 162.30 1.28L162.30 1.28L162.30 1.28Q155.71 1.28 152.32-0.86L152.32-0.86L152.32-0.86Q148.93-3.01 148.93-6.27L148.93-6.27L148.93-6.27Q148.93-12.10 153.47-13.57L153.47-13.57L153.47-13.57Q154.75-14.02 156.70-14.02L156.70-14.02L156.70-14.02Q158.66-14.02 160.90-13.18L160.90-13.18L160.90-13.18Q159.87-10.56 159.87-8.19L159.87-8.19L159.87-8.19Q159.87-3.07 163.52-3.07L163.52-3.07L163.52-3.07Q165.89-3.07 167.84-4.80L167.84-4.80L167.84-4.80Q169.79-6.53 169.79-8.48L169.79-8.48L169.79-8.48Q169.79-10.43 168.54-11.84L168.54-11.84L168.54-11.84Q167.30-13.25 165.44-14.37L165.44-14.37L165.44-14.37Q163.58-15.49 161.44-16.58L161.44-16.58L161.44-16.58Q159.30-17.66 157.44-19.20L157.44-19.20L157.44-19.20Q153.09-22.72 153.09-28.35L153.09-28.35L153.09-28.35Q153.09-32 154.88-34.85L154.88-34.85L154.88-34.85Q156.67-37.70 159.55-39.62L159.55-39.62L159.55-39.62Q165.31-43.52 172.38-43.52L172.38-43.52L172.38-43.52Q179.46-43.52 182.88-41.41L182.88-41.41L182.88-41.41Q186.30-39.30 186.30-35.71L186.30-35.71L186.30-35.71Q186.30-32.58 183.87-30.59L183.87-30.59L183.87-30.59Q181.76-28.93 179.20-28.93L179.20-28.93L179.20-28.93Q176.64-28.93 174.85-29.57ZM219.84-7.10L219.84-7.10L219.84-7.10Q219.84-4.29 222.72-3.46L222.72-3.46L222.72-3.46Q222.02-1.09 219.26 0.19L219.26 0.19L219.26 0.19Q216.96 1.28 214.43 1.28L214.43 1.28L214.43 1.28Q211.90 1.28 210.59 0.61L210.59 0.61L210.59 0.61Q209.28-0.06 208.58-1.15L208.58-1.15L208.58-1.15Q207.42-2.82 207.42-5.95L207.42-5.95L207.42-5.95Q207.42-7.81 208.45-12.93L208.45-12.93L209.34-17.79L209.34-17.79Q210.43-23.36 210.43-25.41L210.43-25.41L210.43-25.41Q210.43-28.99 208.45-28.99L208.45-28.99L208.45-28.99Q205.95-28.99 204.35-25.34L204.35-25.34L204.35-25.34Q203.71-23.94 203.26-21.82L203.26-21.82L198.91 0L186.05 1.28L195.07-44.80L207.94-46.08L207.42-43.52L207.42-43.52Q205.63-33.66 204.10-30.34L204.10-30.34L204.10-30.34Q207.68-33.92 214.27-33.92L214.27-33.92L214.27-33.92Q221.25-33.92 222.53-29.31L222.53-29.31L222.53-29.31Q222.98-27.84 222.98-26.56L222.98-26.56L222.98-26.56Q222.98-25.28 222.88-24.29L222.88-24.29L222.88-24.29Q222.78-23.30 222.46-21.50L222.46-21.50L221.63-16.90L220.16-9.66L220.16-9.66Q219.84-8.19 219.84-7.10ZM241.86 1.28L241.86 1.28L241.86 1.28Q227.78 1.28 227.78-11.97L227.78-11.97L227.78-11.97Q227.78-21.38 232.96-27.46L232.96-27.46L232.96-27.46Q238.46-33.92 248.00-33.92L248.00-33.92L248.00-33.92Q254.91-33.92 258.43-30.72L258.43-30.72L258.43-30.72Q261.95-27.52 261.95-20.80L261.95-20.80L261.95-20.80Q261.95-10.56 256.45-4.61L256.45-4.61L256.45-4.61Q251.07 1.28 241.86 1.28ZM243.52-26.56L243.52-26.56L243.52-26.56Q242.75-24.83 242.14-22.24L242.14-22.24L242.14-22.24Q241.54-19.65 240.77-15.55L240.77-15.55L240.77-15.55Q240.00-11.46 240.00-6.40L240.00-6.40L240.00-6.40Q240.00-4.74 240.54-3.65L240.54-3.65L240.54-3.65Q241.09-2.56 242.56-2.56L242.56-2.56L242.56-2.56Q244.03-2.56 244.96-3.26L244.96-3.26L244.96-3.26Q245.89-3.97 246.59-5.63L246.59-5.63L246.59-5.63Q247.87-8.58 248.90-14.05L248.90-14.05L248.90-14.05Q249.92-19.52 250.02-21.89L250.02-21.89L250.02-21.89Q250.11-24.26 250.11-26.02L250.11-26.02L250.11-26.02Q250.11-27.78 249.60-28.93L249.60-28.93L249.60-28.93Q249.09-30.08 247.65-30.08L247.65-30.08L247.65-30.08Q246.21-30.08 245.25-29.18L245.25-29.18L245.25-29.18Q244.29-28.29 243.52-26.56ZM295.55-4.38L295.55-4.38L295.55-4.38Q292.86-1.66 289.18-0.19L289.18-0.19L289.18-0.19Q285.50 1.28 281.86 1.28L281.86 1.28L281.86 1.28Q278.21 1.28 276.93 0.64L276.93 0.64L274.94 11.52L261.95 12.80L270.78-32.64L281.22-33.73L280.38-29.31L280.38-29.31Q283.07-33.86 288.64-33.86L288.64-33.86L288.64-33.86Q294.91-33.86 298.24-29.82L298.24-29.82L298.24-29.82Q301.18-26.18 301.18-20.61L301.18-20.61L301.18-20.61Q301.18-15.04 299.71-11.07L299.71-11.07L299.71-11.07Q298.24-7.10 295.55-4.38ZM281.09-22.34L277.70-3.58L277.70-3.58Q279.04-2.43 280.70-2.43L280.70-2.43L280.70-2.43Q282.37-2.43 283.33-3.07L283.33-3.07L283.33-3.07Q284.29-3.71 284.99-4.99L284.99-4.99L284.99-4.99Q286.91-8.45 288.45-18.94L288.45-18.94L288.45-18.94Q288.90-22.02 288.90-25.02L288.90-25.02L288.90-25.02Q288.90-28.03 288.22-28.99L288.22-28.99L288.22-28.99Q287.55-29.95 286.27-29.95L286.27-29.95L286.27-29.95Q282.37-29.95 281.09-22.34L281.09-22.34ZM334.85-4.38L334.85-4.38L334.85-4.38Q332.16-1.66 328.48-0.19L328.48-0.19L328.48-0.19Q324.80 1.28 321.15 1.28L321.15 1.28L321.15 1.28Q317.50 1.28 316.22 0.64L316.22 0.64L314.24 11.52L301.25 12.80L310.08-32.64L320.51-33.73L319.68-29.31L319.68-29.31Q322.37-33.86 327.94-33.86L327.94-33.86L327.94-33.86Q334.21-33.86 337.54-29.82L337.54-29.82L337.54-29.82Q340.48-26.18 340.48-20.61L340.48-20.61L340.48-20.61Q340.48-15.04 339.01-11.07L339.01-11.07L339.01-11.07Q337.54-7.10 334.85-4.38ZM320.38-22.34L316.99-3.58L316.99-3.58Q318.34-2.43 320-2.43L320-2.43L320-2.43Q321.66-2.43 322.62-3.07L322.62-3.07L322.62-3.07Q323.58-3.71 324.29-4.99L324.29-4.99L324.29-4.99Q326.21-8.45 327.74-18.94L327.74-18.94L327.74-18.94Q328.19-22.02 328.19-25.02L328.19-25.02L328.19-25.02Q328.19-28.03 327.52-28.99L327.52-28.99L327.52-28.99Q326.85-29.95 325.57-29.95L325.57-29.95L325.57-29.95Q321.66-29.95 320.38-22.34L320.38-22.34ZM370.24-10.82L370.24-10.82L370.24-10.82Q371.84-9.73 371.84-7.33L371.84-7.33L371.84-7.33Q371.84-4.93 370.62-3.39L370.62-3.39L370.62-3.39Q369.41-1.86 367.42-0.83L367.42-0.83L367.42-0.83Q363.33 1.28 358.91 1.28L358.91 1.28L358.91 1.28Q354.50 1.28 351.90 0.32L351.90 0.32L351.90 0.32Q349.31-0.64 347.58-2.43L347.58-2.43L347.58-2.43Q344.19-5.82 344.19-12.03L344.19-12.03L344.19-12.03Q344.19-21.70 349.44-27.58L349.44-27.58L349.44-27.58Q355.07-33.92 364.86-33.92L364.86-33.92L364.86-33.92Q370.94-33.92 373.95-31.36L373.95-31.36L373.95-31.36Q376.19-29.44 376.19-26.30L376.19-26.30L376.19-26.30Q376.19-15.04 356.74-15.04L356.74-15.04L356.74-15.04Q356.48-13.38 356.48-11.97L356.48-11.97L356.48-11.97Q356.48-9.02 357.79-7.90L357.79-7.90L357.79-7.90Q359.10-6.78 361.54-6.78L361.54-6.78L361.54-6.78Q363.97-6.78 366.56-7.90L366.56-7.90L366.56-7.90Q369.15-9.02 370.24-10.82ZM357.18-17.79L357.18-17.79L357.18-17.79Q361.73-17.79 364.35-20.61L364.35-20.61L364.35-20.61Q366.98-23.30 366.98-27.58L366.98-27.58L366.98-27.58Q366.98-29.06 366.43-29.86L366.43-29.86L366.43-29.86Q365.89-30.66 364.80-30.66L364.80-30.66L364.80-30.66Q363.71-30.66 362.78-30.24L362.78-30.24L362.78-30.24Q361.86-29.82 360.90-28.42L360.90-28.42L360.90-28.42Q358.53-25.22 357.18-17.79Z" fill="url(#editing-shiny-gradient2)"></path></g></g><style>text {
  font-size: 64px;
  font-family: Arial Black;
  dominant-baseline: central;
  text-anchor: middle;
}</style></svg>